1.9Hzlow3min_grf.mot
version=1
nRows=25
nColumns 19
inDegrees=yes
endheader
time	1_ground_force_vx	1_ground_force_vy	1_ground_force_vz	1_ground_force_px	1_ground_force_py	1_ground_force_pz	1_ground_torque_x	1_ground_torque_y	1_ground_torque_z	2_ground_force_vx	2_ground_force_vy	2_ground_force_vz	2_ground_force_px	2_ground_force_py	2_ground_force_pz	2_ground_torque_x	2_ground_torque_y	2_ground_torque_z
            3.751500	           24.188106	          226.996130	           -7.707940	           -0.168379	            0.006275	           -0.414769	            0.028498	            0.267447	           -0.009082	            8.754587	          262.415909	            9.473099	           -0.173474	            0.005854	           -0.696632	           -0.023812	           -0.713765	           -0.025767
            3.752000	           23.776500	          224.111013	           -7.535859	           -0.168398	            0.006272	           -0.414092	            0.013115	            0.123614	           -0.004157	            8.723709	          257.996013	            9.504278	           -0.172837	            0.005855	           -0.696317	           -0.022464	           -0.664341	           -0.024474
            3.752500	           23.685487	          221.046282	           -7.502916	           -0.168652	            0.006272	           -0.413914	           -0.007041	           -0.065715	            0.002231	            8.783748	          254.314052	            9.256476	           -0.172554	            0.005854	           -0.695974	           -0.027275	           -0.789677	           -0.028743
            3.753000	           23.869939	          217.620484	           -7.334634	           -0.168291	            0.006270	           -0.413544	           -0.010094	           -0.092024	            0.003102	            8.746059	          251.736994	            8.918801	           -0.172691	            0.005856	           -0.696583	           -0.028384	           -0.816964	           -0.028944
            3.753500	           23.961325	          213.656426	           -7.764570	           -0.168723	            0.006272	           -0.413978	           -0.001826	           -0.016278	            0.000592	            8.427373	          249.158052	            8.815885	           -0.172675	            0.005856	           -0.696601	           -0.029168	           -0.862366	           -0.030513
            3.754000	           23.915815	          210.592294	           -7.869308	           -0.168658	            0.006268	           -0.413125	            0.011066	            0.097445	           -0.003641	            8.298143	          246.026864	            8.851703	           -0.172996	            0.005856	           -0.696907	           -0.026740	           -0.792788	           -0.028523
            3.754500	           23.734240	          206.984979	           -7.425753	           -0.168178	            0.006272	           -0.413978	            0.027967	            0.243901	           -0.008750	            7.889622	          242.343714	            8.463316	           -0.173121	            0.005856	           -0.696905	           -0.023149	           -0.711058	           -0.024832
            3.755000	           23.003052	          203.737106	           -6.750008	           -0.167504	            0.006268	           -0.413128	            0.011446	            0.101379	           -0.003359	            7.764358	          238.107787	            8.448264	           -0.172946	            0.005855	           -0.696515	           -0.021393	           -0.656050	           -0.023277
            3.755500	           22.683590	          199.589754	           -6.491854	           -0.167270	            0.006273	           -0.414183	           -0.006458	           -0.056822	            0.001848	            7.446961	          235.160899	            8.250178	           -0.172530	            0.005856	           -0.696385	           -0.019341	           -0.610744	           -0.021427
            3.756000	           22.638617	          196.704904	           -6.366540	           -0.167481	            0.006271	           -0.413702	           -0.022309	           -0.193842	            0.006274	            7.601364	          231.295136	            8.001679	           -0.172253	            0.005856	           -0.696057	           -0.023367	           -0.711002	           -0.024597
            3.756500	           22.363825	          194.001259	           -6.469163	           -0.167593	            0.006269	           -0.413229	           -0.023866	           -0.207033	            0.006904	            7.753028	          228.166636	            7.568097	           -0.172331	            0.005855	           -0.695917	           -0.027343	           -0.804691	           -0.026691
            3.757000	           23.006300	          190.936670	           -6.438041	           -0.167526	            0.006266	           -0.412660	            0.003825	            0.031745	           -0.001070	            7.293854	          225.586686	            7.606025	           -0.172393	            0.005857	           -0.696505	           -0.026756	           -0.827508	           -0.027901
            3.757500	           22.869412	          186.790730	           -6.501333	           -0.166677	            0.006268	           -0.413081	            0.017133	            0.139938	           -0.004871	            7.023327	          222.639800	            7.454848	           -0.172715	            0.005857	           -0.696782	           -0.023363	           -0.740622	           -0.024799
            3.758000	           22.503617	          184.085887	           -6.328594	           -0.166797	            0.006267	           -0.412793	            0.019877	            0.162599	           -0.005590	            6.379933	          219.139640	            7.161074	           -0.171774	            0.005861	           -0.696895	           -0.020063	           -0.689126	           -0.022519
            3.758500	           21.909540	          179.397095	           -5.934509	           -0.165952	            0.006274	           -0.414251	            0.010445	            0.085526	           -0.002829	            6.013794	          216.744168	            7.199620	           -0.171991	            0.005861	           -0.697355	           -0.015735	           -0.567107	           -0.018838
            3.759000	           21.315832	          175.788914	           -5.306506	           -0.165829	            0.006274	           -0.414422	           -0.017937	           -0.147922	            0.004465	            6.124692	          211.957335	            6.994784	           -0.171072	            0.005862	           -0.696497	           -0.016815	           -0.581928	           -0.019204
            3.759500	           21.087777	          173.804571	           -4.993448	           -0.165997	            0.006271	           -0.413753	           -0.031435	           -0.259087	            0.007444	            6.315956	          210.854111	            6.709193	           -0.171726	            0.005864	           -0.697667	           -0.020285	           -0.677203	           -0.021548
            3.760000	           21.042378	          170.740243	           -5.052331	           -0.166112	            0.006273	           -0.414161	           -0.026368	           -0.213955	            0.006331	            6.288277	          205.514485	            6.455518	           -0.170692	            0.005861	           -0.695886	           -0.023476	           -0.767257	           -0.024101
            3.760500	           21.317768	          167.676173	           -5.157866	           -0.166237	            0.006270	           -0.413396	           -0.007955	           -0.062570	            0.001925	            5.877097	          202.567928	            6.069759	           -0.171200	            0.005861	           -0.696377	           -0.021778	           -0.750643	           -0.022492
            3.761000	           21.134677	          165.513146	           -5.212542	           -0.166185	            0.006261	           -0.411351	           -0.001129	           -0.008840	            0.000278	            5.466082	          199.620032	            6.059426	           -0.170867	            0.005861	           -0.696129	           -0.019997	           -0.730300	           -0.022168
            3.761500	           21.044008	          161.186359	           -5.139154	           -0.165666	            0.006268	           -0.412865	            0.013623	            0.104347	           -0.003327	            4.818138	          197.408052	            6.004892	           -0.170587	            0.005867	           -0.697598	           -0.013381	           -0.548264	           -0.016677
            3.762000	           20.541289	          158.300241	           -4.737566	           -0.165296	            0.006267	           -0.412725	            0.003819	            0.029429	           -0.000881	            4.642723	          194.092553	            6.040073	           -0.170508	            0.005866	           -0.697203	           -0.012249	           -0.512099	           -0.015936
            3.762500	           19.947190	          154.332315	           -4.294533	           -0.164990	            0.006275	           -0.414568	           -0.031990	           -0.247507	            0.006887	            4.423095	          190.040429	            6.025717	           -0.170179	            0.005863	           -0.695975	           -0.012380	           -0.531900	           -0.016865
            3.763000	           19.444228	          150.905990	           -4.032833	           -0.164708	            0.006277	           -0.414913	           -0.037932	           -0.294393	            0.007867	            4.337829	          187.647844	            5.547934	           -0.170387	            0.005865	           -0.696831	           -0.014125	           -0.611018	           -0.018065
            3.763500	           19.216577	          148.560526	           -3.583753	           -0.163424	            0.006268	           -0.412744	           -0.036467	           -0.281921	            0.006801	            4.349087	          184.517665	            5.442908	           -0.170146	            0.005865	           -0.696556	           -0.015881	           -0.673767	           -0.019875
